<svg width="24" height="24" viewBox="0 0 24 24" fill="none" xmlns="http://www.w3.org/2000/svg">
<path d="M7.78731 3.76498C9.74734 2.76232 12.0007 2.49162 14.1425 3.00155C15.7136 3.37563 17.1491 4.15181 18.3148 5.24089L16.5981 6.23205C16.3565 6.37155 16.2123 6.63365 16.2237 6.91242C16.2352 7.19119 16.4005 7.44054 16.6528 7.55971L20.7778 9.50827C21.0002 9.61335 21.26 9.60265 21.4731 9.47964C21.6862 9.35663 21.8253 9.13696 21.8456 8.89177L22.2206 4.34514C22.2435 4.06708 22.1102 3.79927 21.8745 3.64995C21.6388 3.50062 21.3397 3.49447 21.0981 3.63397L19.6642 4.46186C18.2553 3.02945 16.4648 2.01255 14.4899 1.54234C12.0008 0.94972 9.38204 1.26431 7.10417 2.42957C4.8263 3.59483 3.03874 5.53435 2.06278 7.89951C1.08682 10.2647 0.98645 12.9004 1.77972 15.3329C2.57299 17.7655 4.20788 19.8353 6.39053 21.1704C8.57319 22.5055 11.1605 23.0184 13.6874 22.6168C16.2143 22.2151 18.5151 20.9254 20.1762 18.9794C21.8374 17.0334 22.75 14.5586 22.75 12C22.75 11.5858 22.4142 11.25 22 11.25C21.5858 11.25 21.25 11.5858 21.25 12C21.25 14.2016 20.4647 16.331 19.0354 18.0055C17.606 19.68 15.6262 20.7898 13.4519 21.1354C11.2776 21.4809 9.05135 21.0396 7.17325 19.8908C5.29515 18.742 3.88839 16.961 3.20581 14.8679C2.52322 12.7748 2.60959 10.5068 3.44937 8.47168C4.28915 6.43653 5.82728 4.76765 7.78731 3.76498Z" fill="#1A1A1A"/>
<path d="M12 6.25C12.4142 6.25 12.75 6.58579 12.75 7V11.6893L16.5303 15.4697C16.8232 15.7626 16.8232 16.2374 16.5303 16.5303C16.2374 16.8232 15.7626 16.8232 15.4697 16.5303L11.4697 12.5303C11.3978 12.4584 11.3435 12.3755 11.3069 12.2871C11.2702 12.1987 11.25 12.1017 11.25 12V7C11.25 6.58579 11.5858 6.25 12 6.25Z" fill="#1A1A1A"/>
</svg>
